<svg width="1739" height="1983" viewBox="0 0 1739 1983" fill="none" xmlns="http://www.w3.org/2000/svg">
<circle cx="869.446" cy="84.3796" r="84.3796" fill="white"/>
<circle cx="84.7155" cy="540.024" r="84.3796" fill="white"/>
<circle cx="1654.16" cy="540.024" r="84.3796" fill="white"/>
<circle cx="1654.16" cy="1442.89" r="84.3796" fill="white"/>
<circle cx="84.7155" cy="1442.89" r="84.3796" fill="white"/>
<circle cx="869.446" cy="1898.54" r="84.3796" fill="white"/>
<circle cx="869.446" cy="987.239" r="83.296" fill="white" stroke="white" stroke-width="2.16713"/>
<rect width="906.948" height="906.948" transform="matrix(0.868286 0.496064 -0.863747 0.503926 865.594 86.4805)" stroke="white" stroke-width="11.3369"/>
<rect width="906.948" height="906.948" transform="matrix(0.868286 0.496064 -0.863747 0.503926 865.594 993.436)" stroke="white" stroke-width="11.3369"/>
<rect width="906.948" height="906.948" transform="matrix(0.868286 0.496064 0.00453937 0.99999 867.645 90.0469)" stroke="white" stroke-width="11.3369"/>
<path d="M601.392 1251.1V1349.98L687.02 1399.42V1596.3L601.392 1546.86V1349.98L345.26 1202.1V1398.98L601.392 1546.86V1644.87L260.383 1447.99V759.334L601.392 956.215V1054.22L687.02 1103.66V1300.54L601.392 1251.1V1054.22L345.26 906.345V1103.23L601.392 1251.1Z" fill="white"/>
<rect width="906.948" height="906.948" transform="matrix(0.868286 0.496064 0.00453937 0.99999 82.2109 543.525)" stroke="white" stroke-width="11.3369"/>
<rect width="906.948" height="906.948" transform="matrix(0.868286 0.496064 0.00453937 0.99999 82.2109 543.525)" stroke="white" stroke-width="11.3369"/>
<rect width="906.948" height="906.948" transform="matrix(0.863747 -0.503926 0.00453937 0.99999 869.691 993.426)" stroke="white" stroke-width="11.3369"/>
<path d="M260.395 763.913L1056.81 314.234" stroke="white" stroke-width="5.41782" stroke-dasharray="21.67 21.67"/>
<path d="M607.133 964.371L1322.28 541.781" stroke="white" stroke-width="5.41782" stroke-dasharray="21.67 21.67"/>
<path d="M682.973 1592.84L1408.96 1116.07" stroke="white" stroke-width="5.41782" stroke-dasharray="21.67 21.67"/>
<path d="M260.395 1446.56L1056.81 996.879" stroke="white" stroke-width="5.41782" stroke-dasharray="21.67 21.67"/>
<mask id="path-19-outside-1_49_74" maskUnits="userSpaceOnUse" x="970.347" y="263.385" width="436.477" height="952" fill="black">
<rect fill="white" x="970.347" y="263.385" width="436.477" height="952"/>
<path d="M1060.37 911.408L1316.37 1059.21V1157.16L1060.37 1009.36V911.408L975.543 862.431V370.06L1060.37 419.037V911.408ZM1401.95 1108.62L1316.37 1059.21V862.431L1145.96 764.043V665.222L1401.95 813.02V1108.62ZM1316.37 566.835L1060.37 419.037V321.083L1316.37 468.881V566.835L1401.95 616.245V715.066L1316.37 665.656V566.835Z"/>
</mask>
<path d="M1316.37 1059.21L1321.06 1061.91V1056.5L1316.37 1053.79V1059.21ZM1316.37 1157.16V1162.58L1321.06 1165.29V1159.87L1316.37 1157.16ZM1060.37 1009.36L1055.68 1006.65V1012.07L1060.37 1014.78V1009.36ZM975.543 862.431L970.851 859.722V865.14L975.543 867.849V862.431ZM975.543 370.06V364.642L970.851 361.933V367.351L975.543 370.06ZM1060.37 419.037L1065.07 421.746V416.328L1060.37 413.619V419.037ZM1401.95 1108.62V1114.03L1406.64 1116.74V1111.33L1401.95 1108.62ZM1316.37 1059.21L1311.68 1056.5V1061.91L1316.37 1064.62V1059.21ZM1316.37 862.431L1321.06 865.14V859.722L1316.37 857.013V862.431ZM1145.96 764.043L1141.26 761.334V766.752L1145.96 769.461V764.043ZM1145.96 665.222V659.804L1141.26 657.095V662.513L1145.96 665.222ZM1401.95 813.02L1406.64 815.729V810.311L1401.95 807.602V813.02ZM1060.37 419.037L1055.68 416.328V421.746L1060.37 424.454V419.037ZM1060.37 321.083V315.665L1055.68 312.956V318.374L1060.37 321.083ZM1316.37 468.881L1321.06 471.59V466.172L1316.37 463.463V468.881ZM1401.95 616.245L1406.64 618.954V613.536L1401.95 610.827V616.245ZM1401.95 715.066V720.484L1406.64 723.193V717.775L1401.95 715.066ZM1316.37 665.656L1311.68 662.947V668.365L1316.37 671.073V665.656ZM1060.37 911.408V916.826L1316.37 1064.62V1059.21V1053.79L1060.37 905.99V911.408ZM1316.37 1059.21L1311.68 1056.5V1154.45L1316.37 1157.16L1321.06 1159.87V1061.91L1316.37 1059.21ZM1316.37 1157.16V1151.74L1060.37 1003.94V1009.36V1014.78L1316.37 1162.58V1157.16ZM1060.37 1009.36L1065.07 1012.07V914.117L1060.37 911.408L1055.68 908.699V1006.65L1060.37 1009.36ZM1060.37 911.408V905.99L975.543 857.013V862.431V867.849L1060.37 916.826V911.408ZM975.543 862.431L980.235 865.14V372.769L975.543 370.06L970.851 367.351V859.722L975.543 862.431ZM975.543 370.06V375.477L1060.37 424.454V419.037V413.619L975.543 364.642V370.06ZM1060.37 419.037L1055.68 416.328V908.699L1060.37 911.408L1065.07 914.117V421.746L1060.37 419.037ZM1401.95 1108.62V1103.2L1316.37 1053.79V1059.21V1064.62L1401.95 1114.03V1108.62ZM1316.37 1059.21L1321.06 1061.91V865.14L1316.37 862.431L1311.68 859.722V1056.5L1316.37 1059.21ZM1316.37 862.431V857.013L1145.96 758.625V764.043V769.461L1316.37 867.848V862.431ZM1145.96 764.043L1150.65 766.752V667.931L1145.96 665.222L1141.26 662.513V761.334L1145.96 764.043ZM1145.96 665.222V670.64L1401.95 818.438V813.02V807.602L1145.96 659.804V665.222ZM1401.95 813.02L1397.26 810.311V1105.91L1401.95 1108.62L1406.64 1111.33V815.729L1401.95 813.02ZM1316.37 566.835V561.417L1060.37 413.619V419.037V424.454L1316.37 572.252V566.835ZM1060.37 419.037L1065.07 421.746V323.792L1060.37 321.083L1055.68 318.374V416.328L1060.37 419.037ZM1060.37 321.083V326.5L1316.37 474.298V468.881V463.463L1060.37 315.665V321.083ZM1316.37 468.881L1311.68 466.172V564.126L1316.37 566.835L1321.06 569.544V471.59L1316.37 468.881ZM1316.37 566.835V572.252L1401.95 621.663V616.245V610.827L1316.37 561.417V566.835ZM1401.95 616.245L1397.26 613.536V712.357L1401.95 715.066L1406.64 717.775V618.954L1401.95 616.245ZM1401.95 715.066V709.648L1316.37 660.238V665.656V671.073L1401.95 720.484V715.066ZM1316.37 665.656L1321.06 668.365V569.544L1316.37 566.835L1311.68 564.126V662.947L1316.37 665.656Z" fill="white" mask="url(#path-19-outside-1_49_74)"/>
</svg>
